<svg width="32" height="32" viewBox="0 0 32 32" fill="none" xmlns="http://www.w3.org/2000/svg">
<g clip-path="url(#clip0_98_2044)">
<rect width="32" height="32" fill="#1D2130"/>
<path d="M16.0287 2.57422C8.59801 2.57422 2.57422 8.59801 2.57422 16.0287C2.57422 23.4595 8.59801 29.4833 16.0287 29.4833C23.4595 29.4833 29.4833 23.4595 29.4833 16.0287C29.4833 8.59801 23.4595 2.57422 16.0287 2.57422ZM24.9303 8.9471L23.4888 10.3286C23.3627 10.4247 23.3026 10.5809 23.3266 10.731V20.9C23.3026 21.0562 23.3627 21.2123 23.4888 21.3024L24.9003 22.6839V22.9903H17.8127V22.6959L19.2722 21.2784C19.4164 21.1343 19.4164 21.0922 19.4164 20.876V12.6531L15.356 22.9602H14.8094L10.0823 12.6531V19.5606C10.0403 19.8489 10.1424 20.1432 10.3466 20.3534L12.2447 22.6539V22.9602H6.85083V22.6539L8.74888 20.3534C8.9531 20.1432 9.0432 19.8489 8.99515 19.5606V11.5719C9.01918 11.3497 8.93508 11.1335 8.7669 10.9833L7.07908 8.9471V8.64077H12.3227L16.3711 17.5304L19.933 8.64677H24.9303V8.9471Z" fill="white" fill-opacity="0.38"/>
<path fill-rule="evenodd" clip-rule="evenodd" d="M32.3596 0H0V32H32.3596V0ZM16 29C23.1797 29 29 23.1797 29 16C29 8.8203 23.1797 3 16 3C8.8203 3 3 8.8203 3 16C3 23.1797 8.8203 29 16 29Z" fill="white" fill-opacity="0.38"/>
</g>
<defs>
<clipPath id="clip0_98_2044">
<rect width="32" height="32" fill="white"/>
</clipPath>
</defs>
</svg>
